<svg xmlns="http://www.w3.org/2000/svg" width="100" height="100" viewBox="0 0 50 50"><path d="M28.906 1.969c-.043.008-.086.02-.125.031H11.5C9.586 2 8 3.559 8 5.469v38.437C8 46.16 9.867 48 12.125 48h25.75C40.133 48 42 46.16 42 43.906V15.188a1.016 1.016 0 0 0 0-.407V14.5a.99.99 0 0 0-.281-.719l-11.5-11.5A.99.99 0 0 0 29.5 2h-.313a.972.972 0 0 0-.28-.031zM11.5 4H28v8.344A3.666 3.666 0 0 0 31.656 16H40v27.906C40 45.074 39.055 46 37.875 46h-25.75C10.945 46 10 45.074 10 43.906V5.47c0-.825.66-1.47 1.5-1.47zm18.5.938L39.063 14h-7.407A1.633 1.633 0 0 1 30 12.344zM17 24v14h16V24zm2 2h5v2h-5zm7 0h5v2h-5zm-7 4h5v2h-5zm7 0h5v2h-5zm-7 4h5v2h-5zm7 0h5v2h-5z"/></svg>