<svg width="18" height="18" xmlns="http://www.w3.org/2000/svg" viewBox="0 0 111.686 122.879"><path d="M83.896 5.08H27.789C15.298 5.08 5.08 15.299 5.08 27.79v40.079c0 12.489 10.22 22.71 22.709 22.71h17.643c-2.524 9.986-5.581 18.959-14.92 27.241 17.857-4.567 31.642-13.8 41.759-27.241h3.051c12.488 0 31.285-10.219 31.285-22.71V27.79c-.002-12.491-10.22-22.71-22.711-22.71zm-2.767 35.989a8.241 8.241 0 0 0-8.24 8.242 8.241 8.241 0 1 0 16.482 0 8.242 8.242 0 0 0-8.242-8.242zm-50.573 0a8.243 8.243 0 1 0 .001 16.485 8.243 8.243 0 0 0-.001-16.485zm25.287 0a8.243 8.243 0 0 0 0 16.484c4.552 0 8.241-3.691 8.241-8.242s-3.689-8.242-8.241-8.242zM27.789 0h56.114v.02c7.658.002 14.604 3.119 19.623 8.139l-.01.01c5.027 5.033 8.148 11.977 8.15 19.618h.02v.003h-.02v40.079h.02v.004h-.02c-.004 8.17-5.68 15.289-13.24 20.261-7.041 4.629-15.932 7.504-23.104 7.505v.021h-.002v-.021h-.576c-5.064 6.309-10.941 11.694-17.674 16.115-7.443 4.888-15.864 8.571-25.31 10.987l-.004-.016a5.06 5.06 0 0 1-4.599-8.696c4.118-3.651 6.849-7.451 8.826-11.434 1.101-2.219 1.986-4.534 2.755-6.938H27.781v-.021c-7.656-.002-14.602-3.119-19.622-8.139C3.138 82.478.021 75.53.02 67.871H0v-.003h.02V27.79H0v-.007h.02C.021 20.282 3.023 13.46 7.878 8.464c.089-.104.181-.206.279-.304C13.178 3.139 20.125.02 27.785.019V0h.004z"/></svg>