<svg xmlns="http://www.w3.org/2000/svg" width="18" height="18" viewBox="0 0 50 50"><path d="M38.969 0c-3.293-.012-10.164-.121-13.844 3.563l-.656.656v.031c-3.93 3.957-4.387 9.871-1.563 14.313l-20.5 18.75-.031.03c-.898.9-1.844 2.407-2.125 4.282-.281 1.875.203 4.11 2.125 6.031 1.922 1.922 4.156 2.407 6.031 2.125 1.875-.281 3.383-1.226 4.281-2.125h.032v-.031S17.426 42.301 22.188 37c2.382-2.652 4.765-5.29 6.593-7.25a97.717 97.717 0 0 1 2.25-2.344c.153-.152.23-.238.344-.343 4.445 2.93 10.422 2.523 14.406-1.47l.657-.655c1.796-1.793 2.628-4.415 3.062-6.97.434-2.554.43-5.077.438-6.75.003-.382-.004-.757-.313-1.124-.309-.367-.887-.465-1.188-.406-.601.12-.843.437-.843.437l-.032.031-6.5 6.531c-.03.02-.039.024-.093.032a6.01 6.01 0 0 1-.813.062c-.699.008-1.66-.039-2.593-.125a25.896 25.896 0 0 1-2.594-.375 8.804 8.804 0 0 1-.875-.218.71.71 0 0 1-.157-.063.53.53 0 0 1-.062-.125c-.066-.2-.117-.523-.188-.875a24.017 24.017 0 0 1-.343-2.531c-.078-.914-.121-1.84-.094-2.531.016-.348.027-.63.063-.813a.41.41 0 0 1 .062-.156c.867-.867 6.563-6.531 6.563-6.531l.03-.032v-.031s.298-.21.438-.781c.07-.285.047-.84-.312-1.188C39.734.06 39.348 0 38.969 0zm-1.313 2l-5.718 5.719c-.375.375-.403.695-.47 1.031a7.258 7.258 0 0 0-.124 1.125c-.035.816.011 1.773.093 2.75.083.977.211 1.945.375 2.75.083.402.176.777.282 1.094.105.316.172.578.5.906.336.336.586.395.906.5.32.105.684.2 1.094.281.82.164 1.824.282 2.812.375.989.094 1.946.164 2.75.157a7.994 7.994 0 0 0 1.094-.094c.316-.047.586.039 1.031-.407.492-.496 4.418-4.472 5.688-5.75-.024 1.56-.02 3.305-.344 5.22-.398 2.359-1.203 4.609-2.531 5.937l-.657.656c-3.863 3.867-9.808 3.766-13.593-.031l-5-5c-3.782-3.801-3.88-9.754-.032-13.625l.657-.688C28.957 2.414 34.21 2.06 37.656 2zM24 20c.164.188.32.383.5.563l5 5c.137.136.293.246.438.375l-.188.187a91.497 91.497 0 0 0-2.281 2.375 547.894 547.894 0 0 0-6.625 7.281 1464.463 1464.463 0 0 0-9.438 10.625l-.031.032c-.61.597-1.86 1.351-3.25 1.562-1.406.21-2.918-.043-4.469-1.594-1.55-1.55-1.836-3.09-1.625-4.5.211-1.39.996-2.64 1.594-3.25l.031-.031z"/></svg>